<?xml version="1.0" standalone="no"?><!-- Generator: Gravit.io --><svg xmlns="http://www.w3.org/2000/svg" xmlns:xlink="http://www.w3.org/1999/xlink" style="isolation:isolate" viewBox="0 0 1700 2000" width="1700" height="2000"><defs><clipPath id="_clipPath_Yb99Y4xYNu2pJrHZAefZh6V3nrFO4fUr"><rect width="1700" height="2000"/></clipPath></defs><g clip-path="url(#_clipPath_Yb99Y4xYNu2pJrHZAefZh6V3nrFO4fUr)"><path d=" M 406.576 1385 C 154.174 1385 12.239 1428.077 12.239 1453.401 L 12.239 1603.16 C 12.239 1788.339 181.517 1973.939 501.311 1973.939 C 703.065 1973.939 760.612 1812.906 777.271 1695.203 C 785.853 1644.638 803.605 1603.244 845.672 1603.244 C 887.739 1603.244 902.883 1636.393 911.381 1695.287 C 936.789 1812.822 988.363 1973.939 1190.117 1973.939 C 1518.072 1973.939 1679.189 1847.065 1679.189 1603.244 L 1679.189 1453.401 C 1695.931 1428.077 1552.988 1385 1300.585 1385 C 1064.926 1385 920.972 1434.976 853.581 1434.976 C 786.273 1434.976 642.236 1385 406.576 1385 Z " fill="rgb(0,0,0)"/><clipPath id="_clipPath_zV7zYtkWL2bDnum4UeOMtNblVNlxHUqY"><path d=" M 406.576 1385 C 154.174 1385 12.239 1428.077 12.239 1453.401 L 12.239 1603.16 C 12.239 1788.339 181.517 1973.939 501.311 1973.939 C 703.065 1973.939 760.612 1812.906 777.271 1695.203 C 785.853 1644.638 803.605 1603.244 845.672 1603.244 C 887.739 1603.244 902.883 1636.393 911.381 1695.287 C 936.789 1812.822 988.363 1973.939 1190.117 1973.939 C 1518.072 1973.939 1679.189 1847.065 1679.189 1603.244 L 1679.189 1453.401 C 1695.931 1428.077 1552.988 1385 1300.585 1385 C 1064.926 1385 920.972 1434.976 853.581 1434.976 C 786.273 1434.976 642.236 1385 406.576 1385 Z " fill="rgb(0,0,0)"/></clipPath><g clip-path="url(#_clipPath_zV7zYtkWL2bDnum4UeOMtNblVNlxHUqY)"><rect x="286.616" y="1247.856" width="41.366" height="757.341" transform="matrix(0.906,0.423,-0.423,0.906,716.182,22.52)" fill="rgb(36,36,36)"/><rect x="345.745" y="1241.91" width="41.366" height="763.579" transform="matrix(0.906,0.423,-0.423,0.906,720.528,-2.733)" fill="rgb(36,36,36)"/><rect x="1270.093" y="1311.917" width="41.366" height="757.341" transform="matrix(0.906,0.423,-0.423,0.906,835.397,-387.108)" fill="rgb(36,36,36)"/><rect x="1329.223" y="1305.971" width="41.366" height="763.579" transform="matrix(0.906,0.423,-0.423,0.906,839.743,-412.362)" fill="rgb(36,36,36)"/></g><g id="viking_helmet"><path d=" M 1525.383 1097.44 C 1525.383 722.416 1221.401 418.434 846.376 418.434 C 471.352 418.434 167.37 722.416 167.37 1097.44 L 167.37 1306.577 L 1525.383 1306.577 L 1525.383 1097.44 Z " fill="rgb(78,122,181)"/><path d=" M 167.37 1097.44 L 167.37 1149.889 L 1525.383 1149.889 L 1525.383 1097.44 C 1525.383 1079.686 1524.189 1062.549 1522.772 1045.425 L 169.981 1045.425 C 168.564 1062.549 167.37 1079.686 167.37 1097.44 Z " fill="rgb(78,122,181)"/><path d=" M 62.906 1149.678 L 801.137 1149.678 L 1629.846 1149.678 L 1629.846 1463.069 L 62.906 1463.069 L 62.906 1149.678 Z " fill="rgb(255,80,80)"/><path d=" M 1003.065 1724.222 L 846.376 1880.924 L 689.688 1724.222 L 689.688 313.97 L 1003.065 313.97 L 1003.065 1724.222 Z " fill="rgb(255,80,80)"/><path d=" M 950.84 1306.577 C 950.84 1364.091 904.087 1411.041 846.376 1411.041 C 788.666 1411.041 741.913 1364.091 741.913 1306.577 C 741.913 1248.815 788.666 1202.114 846.376 1202.114 C 904.087 1202.114 950.84 1248.815 950.84 1306.577 Z " fill="rgb(208,64,64)"/><path d=" M 1211.992 1306.577 C 1211.992 1335.301 1188.491 1358.816 1159.767 1358.816 C 1131.043 1358.816 1107.528 1335.301 1107.528 1306.577 C 1107.528 1277.735 1130.925 1254.352 1159.767 1254.352 C 1188.609 1254.352 1211.992 1277.735 1211.992 1306.577 Z  M 898.601 627.361 C 898.601 656.085 875.1 679.586 846.376 679.586 C 817.652 679.586 794.151 656.085 794.151 627.361 C 794.151 598.637 817.652 575.123 846.376 575.123 C 875.1 575.123 898.601 598.637 898.601 627.361 Z  M 898.601 888.513 C 898.601 917.25 875.1 940.751 846.376 940.751 C 817.652 940.751 794.151 917.25 794.151 888.513 C 794.151 859.789 817.652 836.288 846.376 836.288 C 875.1 836.288 898.601 859.789 898.601 888.513 Z  M 585.224 1306.577 C 585.224 1335.301 561.71 1358.816 532.986 1358.816 C 504.261 1358.816 480.761 1335.301 480.761 1306.577 C 480.761 1277.735 504.144 1254.352 532.986 1254.352 C 561.827 1254.352 585.224 1277.735 585.224 1306.577 Z  M 324.058 1306.577 C 324.058 1335.301 300.557 1358.816 271.833 1358.816 C 243.096 1358.816 219.595 1335.301 219.595 1306.577 C 219.595 1277.735 242.978 1254.352 271.833 1254.352 C 300.675 1254.352 324.058 1277.735 324.058 1306.577 Z  M 1473.158 1306.577 C 1473.158 1335.301 1449.656 1358.816 1420.919 1358.816 C 1392.196 1358.816 1368.694 1335.301 1368.694 1306.577 C 1368.694 1277.735 1392.077 1254.352 1420.919 1254.352 C 1449.775 1254.352 1473.158 1277.735 1473.158 1306.577 Z " fill="rgb(208,64,64)"/></g><g id="game_controller"><path d=" M 704.446 817.565 C 704.446 741.679 765.481 680.069 840.66 680.069 C 915.838 680.069 976.874 741.679 976.874 817.565 C 976.874 893.452 915.838 955.062 840.66 955.062 C 765.481 955.062 704.446 893.452 704.446 817.565 Z " fill="rgb(204,204,204)"/><path d=" M 872.712 736.195 L 1029.952 613 L 986.557 613 L 580.631 580.595 C 569.031 580.713 471.973 543.057 467 535 C 275.038 431.693 244.001 370.01 199.269 276 C 64.48 193.424 124.996 61.726 65.622 0.003 Q -1.3 217.63 0.026 296.492 L 9.237 846.314 C 14.263 973.058 139.931 1080.199 304.69 1095.551 L 304.69 1095.551 C 305.662 1095.538 307.59 1095.525 308.575 1096.247 L 312.445 1096.22 C 383.395 1101.535 454.713 1089.489 516.045 1061.802 C 518.932 1060.293 522.79 1059.518 525.676 1058.758 C 533.615 1057.747 541.567 1056.789 549.558 1055.962 L 753.341 854.318 C 745.259 850.644 739.813 843.952 739.682 836.262 L 738.383 758.882 C 738.186 747.086 750.599 737.376 766.083 737.231 L 872.712 736.195 L 872.712 736.195 Z  M 828.321 780.113 L 794.873 780.442 L 795.411 812.682 L 828.321 780.113 L 828.321 780.113 Z  M 305.28 726.235 C 322.694 726.064 337.022 714.872 336.8 701.605 C 336.576 688.326 321.88 677.422 304.468 677.592 C 287.042 677.763 272.712 688.956 272.935 702.222 C 273.158 715.488 287.868 726.406 305.28 726.235 Z  M 167.737 834.452 C 185.163 834.294 199.492 823.088 199.269 809.822 C 199.046 796.556 184.349 785.638 166.923 785.809 C 149.511 785.979 135.181 797.172 135.404 810.438 C 135.627 823.718 150.324 834.622 167.737 834.452 Z  M 447.365 831.735 C 464.778 831.565 479.107 820.372 478.884 807.105 C 478.661 793.839 463.964 782.922 446.538 783.092 C 429.126 783.263 414.796 794.456 415.02 807.722 C 415.242 820.989 429.939 831.906 447.365 831.735 Z  M 308.049 891.322 C 290.623 891.492 276.294 902.699 276.518 915.965 C 276.74 929.231 291.437 940.135 308.863 939.978 C 326.276 939.807 340.605 928.601 340.382 915.335 C 340.159 902.069 325.462 891.164 308.049 891.322 Z " fill="rgb(232,232,232)"/><path d=" M 638 677.592 L 580.631 580.595 L 1029.952 580.595 C 1041.551 580.713 1138.609 543.057 1143.582 535 C 1335.545 431.693 1366.581 370.01 1411.314 276 C 1546.102 193.424 1485.587 61.726 1544.96 0.003 Q 1611.882 217.63 1610.557 296.492 L 1601.345 846.314 C 1596.32 973.058 1470.651 1080.199 1305.892 1095.551 L 1305.892 1095.551 C 1304.921 1095.538 1302.992 1095.525 1302.008 1096.247 L 1298.137 1096.22 C 1227.187 1101.535 1155.87 1089.489 1094.538 1061.802 C 1091.65 1060.293 1087.792 1059.518 1084.906 1058.758 C 1076.968 1057.747 533.668 1056.789 525.676 1055.962 L 549.558 807.105 C 557.641 803.431 610.869 793.498 611 785.809 L 580.631 758.882 C 580.828 747.086 607.484 736.339 592 736.195 L 611 702.222 L 638 677.592 Z  M 1305.302 726.235 C 1287.889 726.064 1273.56 714.872 1273.783 701.605 C 1274.006 688.326 1288.703 677.422 1306.115 677.592 C 1323.541 677.763 1337.871 688.956 1337.647 702.222 C 1337.424 715.488 1322.714 726.406 1305.302 726.235 Z  M 1442.845 834.452 C 1425.42 834.294 1411.09 823.088 1411.314 809.822 C 1411.536 796.556 1426.234 785.638 1443.659 785.809 C 1461.072 785.979 1475.401 797.172 1475.178 810.438 C 1474.955 823.718 1460.259 834.622 1442.845 834.452 Z  M 1163.218 831.735 C 1145.805 831.565 1131.476 820.372 1131.699 807.105 C 1131.922 793.839 1146.618 782.922 1164.044 783.092 C 1181.457 783.263 1195.786 794.456 1195.563 807.722 C 1195.34 820.989 1180.644 831.906 1163.218 831.735 Z  M 1302.533 891.322 C 1319.959 891.492 1334.288 902.699 1334.065 915.965 C 1333.842 929.231 1319.146 940.135 1301.72 939.978 C 1284.306 939.807 1269.978 928.601 1270.2 915.335 C 1270.424 902.069 1285.12 891.164 1302.533 891.322 Z " fill="rgb(232,232,232)"/><path d=" M 243.496 701.614 C 243.496 672 267.512 647.951 297.106 647.951 C 326.684 647.951 350.716 672 350.716 701.614 C 350.716 731.228 326.684 755.259 297.106 755.259 C 267.512 755.259 243.496 731.228 243.496 701.614 Z " fill="rgb(217,217,217)"/><path d=" M 257.412 701.598 C 257.412 679.672 275.197 661.878 297.112 661.878 C 319.016 661.878 336.8 679.672 336.8 701.598 C 336.8 723.525 319.016 741.332 297.112 741.332 C 275.197 741.332 257.412 723.525 257.412 701.598 Z " fill="rgb(253,92,92)"/><path d=" M 348.984 808.922 C 348.984 779.308 372.999 755.259 402.593 755.259 C 432.171 755.259 456.203 779.308 456.203 808.922 C 456.203 838.536 432.171 862.567 402.593 862.567 C 372.999 862.567 348.984 838.536 348.984 808.922 Z " fill="rgb(217,217,217)"/><path d=" M 243.496 915.344 C 243.496 885.73 267.512 861.681 297.106 861.681 C 326.684 861.681 350.716 885.73 350.716 915.344 C 350.716 944.958 326.684 968.989 297.106 968.989 C 267.512 968.989 243.496 944.958 243.496 915.344 Z " fill="rgb(217,217,217)"/><path d=" M 362.9 809.285 C 362.9 787.358 380.693 769.551 402.593 769.551 C 424.506 769.551 442.287 787.358 442.287 809.285 C 442.287 831.211 424.506 849.005 402.593 849.005 C 380.693 849.005 362.9 831.211 362.9 809.285 Z " fill="rgb(139,183,240)"/><path d=" M 257.412 915.342 C 257.412 893.415 275.197 875.609 297.112 875.609 C 319.016 875.609 336.8 893.415 336.8 915.342 C 336.8 937.269 319.016 955.062 297.112 955.062 C 275.197 955.062 257.412 937.269 257.412 915.342 Z " fill="rgb(191,70,70)"/><path d=" M 136.277 809.287 C 136.277 779.673 160.293 755.624 189.886 755.624 C 219.465 755.624 243.496 779.673 243.496 809.287 C 243.496 838.901 219.465 862.932 189.886 862.932 C 160.293 862.932 136.277 838.901 136.277 809.287 Z " fill="rgb(217,217,217)"/><path d=" M 150.193 809.285 C 150.193 787.358 167.975 769.551 189.887 769.551 C 211.787 769.551 229.581 787.358 229.581 809.285 C 229.581 831.211 211.787 849.005 189.887 849.005 C 167.975 849.005 150.193 831.211 150.193 809.285 Z " fill="rgb(78,122,181)"/><path d=" M 1220.582 796.308 C 1220.582 723.621 1279.594 664.609 1352.281 664.609 C 1424.968 664.609 1483.981 723.621 1483.981 796.308 C 1483.981 868.995 1424.968 928.008 1352.281 928.008 C 1279.594 928.008 1220.582 868.995 1220.582 796.308 Z " fill="rgb(204,204,204)"/><path d=" M 1260.568 796.308 C 1260.568 745.69 1301.663 704.595 1352.281 704.595 C 1402.899 704.595 1443.994 745.69 1443.994 796.308 C 1443.994 846.926 1402.899 888.021 1352.281 888.021 C 1301.663 888.021 1260.568 846.926 1260.568 796.308 Z " fill="rgb(255,255,255)"/></g></g></svg>